<?xml version="1.0" encoding="UTF-8"?>
<svg width="180px" height="164px" viewBox="0 0 180 164" version="1.1" xmlns="http://www.w3.org/2000/svg" xmlns:xlink="http://www.w3.org/1999/xlink">
    <title>bot-1</title>
    <defs>
        <path d="M24.4625166,16 C28.4743509,16 29.929139,16.4177153 31.3958057,17.2020972 C32.8624723,17.9864791 34.0135209,19.1375277 34.7979028,20.6041943 C35.5822847,22.070861 36,23.5256491 36,27.5374834 L36,48.4625166 C36,52.4743509 35.5822847,53.929139 34.7979028,55.3958057 C34.0135209,56.8624723 32.8624723,58.0135209 31.3958057,58.7979028 C29.929139,59.5822847 28.4743509,60 24.4625166,60 L11.5374834,60 C7.52564907,60 6.070861,59.5822847 4.60419433,58.7979028 C3.13752767,58.0135209 1.98647908,56.8624723 1.20209717,55.3958057 C0.41771525,53.929139 1.80555915e-16,52.4743509 -3.10752092e-16,48.4625166 L3.10752092e-16,27.5374834 C-1.80555915e-16,23.5256491 0.41771525,22.070861 1.20209717,20.6041943 C1.98647908,19.1375277 3.13752767,17.9864791 4.60419433,17.2020972 C6.070861,16.4177153 7.52564907,16 11.5374834,16 L24.4625166,16 Z M140.462517,16 C144.474351,16 145.929139,16.4177153 147.395806,17.2020972 C148.862472,17.9864791 150.013521,19.1375277 150.797903,20.6041943 C151.582285,22.070861 152,23.5256491 152,27.5374834 L152,48.4625166 C152,52.4743509 151.582285,53.929139 150.797903,55.3958057 C150.013521,56.8624723 148.862472,58.0135209 147.395806,58.7979028 C145.929139,59.5822847 144.474351,60 140.462517,60 L127.537483,60 C123.525649,60 122.070861,59.5822847 120.604194,58.7979028 C119.137528,58.0135209 117.986479,56.8624723 117.202097,55.3958057 C116.417715,53.929139 116,52.4743509 116,48.4625166 L116,27.5374834 C116,23.5256491 116.417715,22.070861 117.202097,20.6041943 C117.986479,19.1375277 119.137528,17.9864791 120.604194,17.2020972 C122.070861,16.4177153 123.525649,16 127.537483,16 L140.462517,16 Z" id="path-1"></path>
        <polygon id="path-3" points="50 8 82 52 18 52"></polygon>
        <rect id="path-5" x="0" y="0" width="130" height="120" rx="18"></rect>
    </defs>
    <g id="Intro" stroke="none" stroke-width="1" fill="none" fill-rule="evenodd">
        <g id="bot-1">
            <g id="Sides/Square" transform="translate(0.000000, 66.000000)">
                <g id="Ears" transform="translate(14.000000, 0.000000)">
                    <mask id="mask-2" fill="white">
                        <use xlink:href="#path-1"></use>
                    </mask>
                    <use fill="#0076DE" xlink:href="#path-1"></use>
                    <g id="Color/04-Deep-Purple/A400" mask="url(#mask-2)" fill="#6200EA">
                        <g transform="translate(-14.000000, 0.000000)">
                            <polygon points="0 4.90920436e-14 180 4.90920436e-14 180 76 0 76"></polygon>
                        </g>
                    </g>
                    <rect id="Shadow" fill-opacity="0.1" fill="#000000" mask="url(#mask-2)" x="-14" y="38" width="180" height="38"></rect>
                </g>
            </g>
            <g id="Top/Pyramid" transform="translate(41.000000, 0.000000)">
                <mask id="mask-4" fill="white">
                    <use xlink:href="#path-3"></use>
                </mask>
                <use id="Triangle" fill="#E1E6E8" fill-rule="evenodd" xlink:href="#path-3"></use>
                <g id="Color/05-Indigo/A200" mask="url(#mask-4)" fill="#536DFE" fill-rule="evenodd">
                    <polygon points="0 0 100 0 100 52 0 52"></polygon>
                </g>
                <rect id="Highlight" fill-opacity="0.8" fill="#FFFFFF" fill-rule="evenodd" mask="url(#mask-4)" x="50" y="4" width="30" height="48"></rect>
            </g>
            <g id="Face/Square-01" transform="translate(25.000000, 44.000000)">
                <mask id="mask-6" fill="white">
                    <use xlink:href="#path-5"></use>
                </mask>
                <use id="Shape" fill="#0076DE" fill-rule="evenodd" xlink:href="#path-5"></use>
                <g id="Color/05-Indigo/900" mask="url(#mask-6)" fill="#1A237E" fill-rule="evenodd">
                    <g transform="translate(-2.000000, -2.000000)">
                        <rect x="0" y="0" width="134" height="124"></rect>
                    </g>
                </g>
                <g id="Texture/-None" mask="url(#mask-6)">
                    <g transform="translate(-1.000000, -1.000000)"></g>
                </g>
            </g>
            <g id="Mouth/Grill-03" transform="translate(52.000000, 124.000000)">
                <rect id="Kiss-The-Robot-Beep-Boop" fill-opacity="0.2" fill="#000000" x="4" y="5" width="68" height="22" rx="5"></rect>
                <path d="M10,9 L66,9 C67.1045695,9 68,9.8954305 68,11 L68,21 C68,22.1045695 67.1045695,23 66,23 L10,23 C8.8954305,23 8,22.1045695 8,21 L8,11 C8,9.8954305 8.8954305,9 10,9 Z" id="Kiss-The-Robot-Beep-Boop" fill="#FFFFFF"></path>
                <rect id="Bender-Teeth" fill-opacity="0.1" fill="#000000" x="18" y="9" width="4" height="14"></rect>
                <rect id="Bender-Teeth" fill-opacity="0.1" fill="#000000" x="42" y="9" width="4" height="14"></rect>
                <rect id="Bender-Teeth" fill-opacity="0.1" fill="#000000" x="30" y="9" width="4" height="14"></rect>
                <rect id="Bender-Teeth" fill-opacity="0.1" fill="#000000" x="54" y="9" width="4" height="14"></rect>
            </g>
            <g id="Eyes/Hearts-ðŸ˜" transform="translate(38.000000, 76.000000)" fill="#FF5353" fill-opacity="0.8" fill-rule="nonzero">
                <path d="M29.9583333,10 C27.4074091,10 24.8837273,11.9797894 23.5,13.8206358 C22.1106364,11.9797894 19.5925909,10 17.0416667,10 C11.5523182,10 8,13.3341032 8,17.6412715 C8,23.3708668 12.4118636,26.771228 17.0416667,30.376724 C18.695,31.6133636 21.8223436,34.7777086 22.2083333,35.470905 C22.5943231,36.1641015 24.3143077,36.1885229 24.7916667,35.470905 C25.2690257,34.7532872 28.3021818,31.6133636 29.9583333,30.376724 C34.5853182,26.771228 39,23.3708668 39,17.6412715 C39,13.3341032 35.4476818,10 29.9583333,10 Z" id="Heart" transform="translate(23.500000, 23.000000) rotate(-3.000000) translate(-23.500000, -23.000000) "></path>
                <path d="M86.9583333,10 C84.4074091,10 81.8837273,11.9797894 80.5,13.8206358 C79.1106364,11.9797894 76.5925909,10 74.0416667,10 C68.5523182,10 65,13.3341032 65,17.6412715 C65,23.3708668 69.4118636,26.771228 74.0416667,30.376724 C75.695,31.6133636 78.8223436,34.7777086 79.2083333,35.470905 C79.5943231,36.1641015 81.3143077,36.1885229 81.7916667,35.470905 C82.2690257,34.7532872 85.3021818,31.6133636 86.9583333,30.376724 C91.5853182,26.771228 96,23.3708668 96,17.6412715 C96,13.3341032 92.4476818,10 86.9583333,10 Z" id="Heart" transform="translate(80.500000, 23.000000) rotate(3.000000) translate(-80.500000, -23.000000) "></path>
            </g>
        </g>
    </g>
</svg>